<?xml version="1.0" encoding="UTF-8" standalone="no"?>
<!-- Created with Inkscape (http://www.inkscape.org/) -->
<svg
   xmlns:dc="http://purl.org/dc/elements/1.1/"
   xmlns:cc="http://web.resource.org/cc/"
   xmlns:rdf="http://www.w3.org/1999/02/22-rdf-syntax-ns#"
   xmlns:svg="http://www.w3.org/2000/svg"
   xmlns="http://www.w3.org/2000/svg"
   xmlns:sodipodi="http://sodipodi.sourceforge.net/DTD/sodipodi-0.dtd"
   xmlns:inkscape="http://www.inkscape.org/namespaces/inkscape"
   width="444.53162"
   height="552.74408"
   id="svg2"
   sodipodi:version="0.32"
   inkscape:version="0.45.1"
   sodipodi:docbase="C:\work\wikigraphics"
   sodipodi:docname="Gram-Cell-wall.svg"
   inkscape:output_extension="org.inkscape.output.svg.inkscape"
   version="1.0">
  <defs
     id="defs4" />
  <sodipodi:namedview
     id="base"
     pagecolor="#ffffff"
     bordercolor="#666666"
     borderopacity="1.0"
     gridtolerance="10000"
     guidetolerance="10"
     objecttolerance="10"
     inkscape:pageopacity="0.0"
     inkscape:pageshadow="2"
     inkscape:zoom="0.7578576"
     inkscape:cx="322.9531"
     inkscape:cy="469.57592"
     inkscape:document-units="px"
     inkscape:current-layer="layer1"
     showguides="true"
     inkscape:guide-bbox="true"
     inkscape:guide-points="true"
     inkscape:window-width="1680"
     inkscape:window-height="994"
     inkscape:window-x="0"
     inkscape:window-y="22" />
  <metadata
     id="metadata7">
    <rdf:RDF>
      <cc:Work
         rdf:about="">
        <dc:format>image/svg+xml</dc:format>
        <dc:type
           rdf:resource="http://purl.org/dc/dcmitype/StillImage" />
      </cc:Work>
    </rdf:RDF>
  </metadata>
  <g
     inkscape:label="Layer 1"
     inkscape:groupmode="layer"
     id="layer1"
     transform="translate(292.15441,-155.40778)">
    <path
       style="fill:#9d3102;fill-opacity:1;fill-rule:nonzero;stroke:#000000;stroke-width:1;stroke-linecap:round;stroke-linejoin:miter;stroke-miterlimit:4;stroke-dasharray:none;stroke-opacity:1"
       d="M -47.02903,209.78637 C -67.31248,209.78637 -83.65403,226.09668 -83.65403,246.38012 L -83.65403,338.16137 C -83.65403,358.44482 -67.31248,374.78635 -47.02903,374.78637 L 151.87722,374.78637 L 151.87722,364.78637 L -41.46653,364.78637 C -59.29138,364.78635 -73.65403,350.42372 -73.65403,332.59887 L -73.65403,251.94262 C -73.65403,234.11777 -59.29138,219.78637 -41.46653,219.78637 L 151.87722,219.78637 L 151.87722,209.78637 L -47.02903,209.78637 z "
       id="rect2180" />
    <path
       style="fill:#00ffff;fill-opacity:1;fill-rule:nonzero;stroke:#000000;stroke-width:1;stroke-linecap:round;stroke-linejoin:miter;stroke-miterlimit:4;stroke-dasharray:none;stroke-opacity:1"
       d="M -41.46653,219.78637 C -59.29138,219.78637 -73.65403,234.11777 -73.65403,251.94262 L -73.65403,332.59887 C -73.65403,350.42372 -59.29138,364.78635 -41.46653,364.78637 L 151.87722,364.78637 L 151.87722,359.78637 L -38.68528,359.78637 C -55.28084,359.78635 -68.65403,346.41317 -68.65403,329.81762 L -68.65403,254.72387 C -68.65403,238.12833 -55.28083,224.78637 -38.68528,224.78637 L 151.87722,224.78637 L 151.87722,219.78637 L -41.46653,219.78637 z "
       id="rect2178" />
    <path
       style="fill:#00ff00;fill-opacity:1;fill-rule:nonzero;stroke:#000000;stroke-width:1;stroke-linecap:round;stroke-linejoin:miter;stroke-miterlimit:4;stroke-dasharray:none;stroke-opacity:1"
       d="M -38.68528,224.78637 C -55.28083,224.78637 -68.65403,238.12833 -68.65403,254.72387 L -68.65403,329.81762 C -68.65403,346.41317 -55.28084,359.78635 -38.68528,359.78637 L 151.87722,359.78637 L 151.87722,354.78637 L -35.90403,354.78637 C -51.27029,354.78635 -63.65403,342.40262 -63.65403,327.03637 L -63.65403,257.50512 C -63.65403,242.13887 -51.27028,229.78637 -35.90403,229.78637 L 151.87722,229.78637 L 151.87722,224.78637 L -38.68528,224.78637 z "
       id="rect2176" />
    <path
       style="fill:#008000;fill-opacity:1;fill-rule:nonzero;stroke:#000000;stroke-width:1;stroke-linecap:round;stroke-linejoin:miter;stroke-miterlimit:4;stroke-dasharray:none;stroke-opacity:1"
       d="M -47.654027,476.35051 C -69.16678,476.35051 -86.46653,493.68152 -86.46653,515.19426 L -86.46653,612.50676 C -86.46653,634.01951 -69.16677,651.35051 -47.654027,651.35051 L 151.87722,651.35051 L 151.87722,646.35051 L -44.872777,646.35051 C -65.15624,646.35051 -81.46653,630.00896 -81.46653,609.72551 L -81.46653,517.97551 C -81.46653,497.69205 -65.15623,481.35051 -44.872777,481.35051 L 151.87722,481.35051 L 151.87722,476.35051 L -47.654027,476.35051 z "
       id="rect2192" />
    <path
       style="fill:#00ffff;fill-opacity:1;fill-rule:nonzero;stroke:#000000;stroke-width:1;stroke-linecap:round;stroke-linejoin:miter;stroke-miterlimit:4;stroke-dasharray:none;stroke-opacity:1"
       d="M -44.872777,481.35051 C -65.15623,481.35051 -81.46653,497.69205 -81.46653,517.97551 L -81.46653,609.72551 C -81.46653,630.00896 -65.15624,646.35051 -44.872777,646.35051 L 151.87722,646.35051 L 151.87722,641.35051 L -42.091527,641.35051 C -61.14568,641.35051 -76.46653,625.99841 -76.46653,606.94426 L -76.46653,520.75676 C -76.46653,501.70258 -61.14568,486.35051 -42.091527,486.35051 L 151.87722,486.35051 L 151.87722,481.35051 L -44.872777,481.35051 z "
       id="rect2188" />
    <path
       style="fill:#9d3102;fill-opacity:1;fill-rule:nonzero;stroke:#000000;stroke-width:1;stroke-linecap:round;stroke-linejoin:miter;stroke-miterlimit:4;stroke-dasharray:none;stroke-opacity:1"
       d="M -42.091527,486.35051 C -61.14568,486.35051 -76.46653,501.70258 -76.46653,520.75676 L -76.46653,606.94426 C -76.46653,625.99841 -61.14568,641.35051 -42.091527,641.35051 L 151.87722,641.35051 L 151.87722,636.35051 L -39.310277,636.35051 C -57.13512,636.35051 -71.46653,621.98786 -71.46653,604.16301 L -71.46653,523.53801 C -71.46653,505.71317 -57.13513,491.35051 -39.310277,491.35051 L 151.87722,491.35051 L 151.87722,486.35051 L -42.091527,486.35051 z "
       id="rect2190" />
    <path
       style="fill:#00ffff;fill-opacity:1;fill-rule:nonzero;stroke:#000000;stroke-width:1;stroke-linecap:round;stroke-linejoin:miter;stroke-miterlimit:4;stroke-dasharray:none;stroke-opacity:1"
       d="M -39.310277,491.35051 C -57.13513,491.35051 -71.46653,505.71317 -71.46653,523.53801 L -71.46653,604.16301 C -71.46653,621.98786 -57.13512,636.35051 -39.310277,636.35051 L 151.87722,636.35051 L 151.87722,631.35051 L -36.529027,631.35051 C -53.12459,631.35051 -66.46653,617.97731 -66.46653,601.38176 L -66.46653,526.31926 C -66.46653,509.7237 -53.12458,496.35051 -36.529027,496.35051 L 151.87722,496.35051 L 151.87722,491.35051 L -39.310277,491.35051 z "
       id="rect2182" />
    <path
       style="fill:#00ff00;fill-opacity:1;fill-rule:nonzero;stroke:#000000;stroke-width:1;stroke-linecap:round;stroke-linejoin:miter;stroke-miterlimit:4;stroke-dasharray:none;stroke-opacity:1"
       d="M -36.529027,496.35051 C -53.12458,496.35051 -66.46653,509.7237 -66.46653,526.31926 L -66.46653,601.38176 C -66.46653,617.97731 -53.12459,631.35051 -36.529027,631.35051 L 151.87722,631.35051 L 151.87722,626.35051 L -33.747777,626.35051 C -49.114027,626.35051 -61.46653,613.96676 -61.46653,598.60051 L -61.46653,529.10051 C -61.46653,513.73423 -49.114027,501.35051 -33.747777,501.35051 L 151.87722,501.35051 L 151.87722,496.35051 L -36.529027,496.35051 z "
       id="rect2184" />
    <rect
       style="fill:#ffffff;fill-opacity:1;fill-rule:nonzero;stroke:#000000;stroke-width:1;stroke-linecap:round;stroke-linejoin:miter;stroke-miterlimit:4;stroke-dasharray:none;stroke-opacity:1"
       id="rect3250"
       width="193.30809"
       height="42.307594"
       x="-49.343048"
       y="665.34424" />
    <text
       id="text3246"
       y="693.85419"
       x="-34.751495"
       style="font-style:normal;font-weight:normal;fill:#000000;fill-opacity:1;stroke:none;stroke-width:1px;stroke-linecap:butt;stroke-linejoin:miter;stroke-opacity:1;font-family:Times New Roman"
       xml:space="preserve"><tspan
         style="font-size:26px;font-family:Times New Roman"
         y="693.85419"
         x="-34.751495"
         id="tspan3248"
         sodipodi:role="line">Gram Negative</tspan></text>
    <rect
       y="155.90778"
       x="-49.343052"
       height="42.307594"
       width="193.30809"
       id="rect3254"
       style="fill:#ffffff;fill-opacity:1;fill-rule:nonzero;stroke:#000000;stroke-width:1;stroke-linecap:round;stroke-linejoin:miter;stroke-miterlimit:4;stroke-dasharray:none;stroke-opacity:1" />
    <text
       xml:space="preserve"
       style="font-style:normal;font-weight:normal;fill:#000000;fill-opacity:1;stroke:none;stroke-width:1px;stroke-linecap:butt;stroke-linejoin:miter;stroke-opacity:1;font-family:Times New Roman"
       x="-29.470247"
       y="184.41771"
       id="text3256"><tspan
         sodipodi:role="line"
         id="tspan3258"
         x="-29.470247"
         y="184.41771"
         style="font-size:26px;font-family:Times New Roman">Gram Positive</tspan></text>
    <text
       xml:space="preserve"
       style="font-style:normal;font-weight:normal;fill:#000000;fill-opacity:1;stroke:none;stroke-width:1px;stroke-linecap:butt;stroke-linejoin:miter;stroke-opacity:1;font-family:Times New Roman"
       x="-288.01477"
       y="226.57153"
       id="text3282"><tspan
         sodipodi:role="line"
         id="tspan3284"
         x="-288.01477"
         y="226.57153"
         style="font-size:18px;font-family:Times New Roman">Plasma Membrane</tspan></text>
    <text
       id="text3286"
       y="294.45728"
       x="-280.63196"
       style="font-style:normal;font-weight:normal;fill:#000000;fill-opacity:1;stroke:none;stroke-width:1px;stroke-linecap:butt;stroke-linejoin:miter;stroke-opacity:1;font-family:Times New Roman"
       xml:space="preserve"><tspan
         style="font-size:18px;font-family:Times New Roman"
         y="294.45728"
         x="-280.63196"
         id="tspan3288"
         sodipodi:role="line">Periplasmic space</tspan></text>
    <text
       xml:space="preserve"
       style="font-style:normal;font-weight:normal;fill:#000000;fill-opacity:1;stroke:none;stroke-width:1px;stroke-linecap:butt;stroke-linejoin:miter;stroke-opacity:1;font-family:Times New Roman"
       x="-254.0714"
       y="366.52661"
       id="text3290"><tspan
         sodipodi:role="line"
         id="tspan3292"
         x="-254.0714"
         y="366.52661"
         style="font-size:18px;font-family:Times New Roman">Peptidoglycan</tspan></text>
    <text
       id="text3312"
       y="475.7587"
       x="-288.01477"
       style="font-style:normal;font-weight:normal;fill:#000000;fill-opacity:1;stroke:none;stroke-width:1px;stroke-linecap:butt;stroke-linejoin:miter;stroke-opacity:1;font-family:Times New Roman"
       xml:space="preserve"><tspan
         style="font-size:18px;font-family:Times New Roman"
         y="475.7587"
         x="-288.01477"
         id="tspan3314"
         sodipodi:role="line">Plasma Membrane</tspan></text>
    <text
       id="text3320"
       y="615.71381"
       x="-147.79405"
       style="font-style:normal;font-weight:normal;fill:#000000;fill-opacity:1;stroke:none;stroke-width:1px;stroke-linecap:butt;stroke-linejoin:miter;stroke-opacity:1;font-family:Times New Roman"
       xml:space="preserve"><tspan
         style="font-size:18px;text-align:end;text-anchor:end;font-family:Times New Roman"
         y="615.71381"
         x="-147.79405"
         id="tspan3322"
         sodipodi:role="line">Outer membrane</tspan><tspan
         style="font-size:18px;text-align:end;text-anchor:end;font-family:Times New Roman"
         y="638.21381"
         x="-147.79405"
         sodipodi:role="line"
         id="tspan3372">(lipopolysaccharide</tspan><tspan
         style="font-size:18px;text-align:end;text-anchor:end;font-family:Times New Roman"
         y="660.71381"
         x="-147.79405"
         sodipodi:role="line"
         id="tspan3374">and protein</tspan></text>
    <text
       id="text3364"
       y="519.58911"
       x="-280.63196"
       style="font-style:normal;font-weight:normal;fill:#000000;fill-opacity:1;stroke:none;stroke-width:1px;stroke-linecap:butt;stroke-linejoin:miter;stroke-opacity:1;font-family:Times New Roman"
       xml:space="preserve"><tspan
         style="font-size:18px;font-family:Times New Roman"
         y="519.58911"
         x="-280.63196"
         id="tspan3366"
         sodipodi:role="line">Periplasmic space</tspan></text>
    <text
       xml:space="preserve"
       style="font-style:normal;font-weight:normal;fill:#000000;fill-opacity:1;stroke:none;stroke-width:1px;stroke-linecap:butt;stroke-linejoin:miter;stroke-opacity:1;font-family:Times New Roman"
       x="-254.0714"
       y="567.60315"
       id="text3368"><tspan
         sodipodi:role="line"
         id="tspan3370"
         x="-254.0714"
         y="567.60315"
         style="font-size:18px;font-family:Times New Roman">Peptidoglycan</tspan></text>
    <path
       style="fill:none;fill-rule:evenodd;stroke:#000000;stroke-width:1px;stroke-linecap:butt;stroke-linejoin:miter;stroke-opacity:1"
       d="M -142.50699,222.39096 L -60.697418,238.88482"
       id="path3388" />
    <path
       style="fill:none;fill-rule:evenodd;stroke:#000000;stroke-width:1px;stroke-linecap:butt;stroke-linejoin:miter;stroke-opacity:1"
       d="M -145.146,290.34567 L -71.253491,290.34567"
       id="path3394" />
    <path
       style="fill:none;fill-rule:evenodd;stroke:#000000;stroke-width:1px;stroke-linecap:butt;stroke-linejoin:miter;stroke-opacity:1"
       d="M -144.48625,362.25892 L -77.851037,339.82727"
       id="path3396" />
    <path
       style="fill:none;fill-rule:evenodd;stroke:#000000;stroke-width:1px;stroke-linecap:butt;stroke-linejoin:miter;stroke-opacity:1"
       d="M -143.82649,471.77818 L -56.738891,509.38419"
       id="path3398" />
    <path
       style="fill:none;fill-rule:evenodd;stroke:#000000;stroke-width:1px;stroke-linecap:butt;stroke-linejoin:miter;stroke-opacity:1"
       d="M -142.50699,514.66222 L -79.170546,514.66222"
       id="path3400" />
    <path
       id="path3402"
       d="M -142.50699,514.66222 L -69.274228,535.11461"
       style="fill:none;fill-rule:evenodd;stroke:#000000;stroke-width:1px;stroke-linecap:butt;stroke-linejoin:miter;stroke-opacity:1"
       sodipodi:nodetypes="cc" />
    <path
       style="fill:none;fill-rule:evenodd;stroke:#000000;stroke-width:1px;stroke-linecap:butt;stroke-linejoin:miter;stroke-opacity:1"
       d="M -143.16674,563.48406 L -73.892509,563.48406"
       id="path3404" />
    <path
       style="fill:none;fill-rule:evenodd;stroke:#000000;stroke-width:1px;stroke-linecap:butt;stroke-linejoin:miter;stroke-opacity:1"
       d="M -137.8887,612.96565 L -84.448582,605.70835"
       id="path3406" />
  </g>
</svg>
